<svg width="512" height="512" viewBox="0 0 512 512" fill="none" xmlns="http://www.w3.org/2000/svg">
<g clip-path="url(#clip0)">
<rect width="512" height="512" fill="#B89BFB"/>
<rect width="512" height="512" fill="url(#paint0_linear)"/>
<g filter="url(#filter0_d)">
<circle cx="419" cy="81" r="50" fill="url(#paint1_radial)"/>
</g>
<g filter="url(#filter1_d)">
<circle cx="484" cy="116" r="25" fill="url(#paint2_radial)"/>
</g>
<path d="M62 144H509V177H62V144Z" fill="#453496"/>
<path d="M62 177H509V202H62V177Z" fill="#D19D9F"/>
<path d="M62 203H509V236H62V203Z" fill="#453496"/>
<path d="M62 261H509V294H62V261Z" fill="#453496"/>
<path d="M62 236H509V261H62V236Z" fill="#D19D9F"/>
<path d="M196.611 -14.9339H334.111L353.556 -1.7395L366.056 18.3994L374.389 46.8716L386.194 87.8438L399.389 125.344L405.639 144.094L420.917 164.233L427.167 181.594V212.149L415.361 235.066L405.639 252.427V270.483V283.677L420.917 289.233L435.5 296.177L454.25 310.066V345.483V399.649V442.01H46.6111V277.427L66.75 270.483H92.4444H109.806L100.778 252.427L92.4444 224.649L100.778 194.788L122.306 164.233L134.806 125.344L145.917 98.2605L162.583 66.3161L171.611 28.8161L196.611 -14.9339Z" fill="#C4C4C4" fill-opacity="0.3"/>
<path d="M23 276.346L92.45 267H233.665L486 308.587V510H23V276.346Z" fill="#8F8F8F"/>
<path d="M269.245 510.455L185.682 340.305L354.789 341.293L269.245 510.455Z" fill="#212329"/>
<path d="M188.474 153.083L187.802 161.814L181.959 164.411L173.332 163.083L169.975 156.37L169.933 156.286L169.862 156.222L162.965 150.014L158.877 143.883L155.431 131.478L152.667 117.655V106.655L155.416 95.6572L158.775 88.9401L166.047 86.2956L172.706 88.9593L178.854 95.7902L184.39 104.093L185.021 105.041L185.291 103.935L192.225 75.5067L201.223 55.4351L210.225 40.2002L220.596 25.6802L233.033 14.6257L246.89 4.9254L258.622 -2.66597L276.403 -7.45309L290.778 0.761331L302.557 9.76879L302.589 9.79298L302.624 9.81185L311.652 14.673L311.69 14.6934L311.731 14.7071L320.064 17.4848L320.098 17.4961L320.133 17.5024L327.662 18.8713L337.208 25.6903L343.378 35.9737L364.167 95.5674V131.535L353.775 175.18L337.159 211.181L324.069 226.338L302.733 238.038H286.244L258.586 232.507L246.845 226.291L246.845 226.291L246.835 226.285L232.974 219.355L220.534 211.062L208.798 200.016L201.221 188.995L195.696 175.183L189.454 152.986L188.474 153.083Z" fill="#E7CBF3" stroke="black"/>
<path d="M275.058 134.261C271.244 134.771 271.35 137.024 271.88 138.087C276.912 140 286.658 142.678 285.387 138.087C283.798 132.348 279.825 133.623 275.058 134.261Z" fill="url(#paint3_linear)"/>
<path d="M304.225 138.427C300.411 138.937 300.517 141.19 301.046 142.253C306.078 144.166 315.825 146.844 314.553 142.253C312.964 136.514 308.992 137.79 304.225 138.427Z" fill="url(#paint4_linear)"/>
<path d="M264.85 126.038C264.85 123.26 270.406 119.788 280.823 112.149L289.85 94.7883L291.934 83.6772H300.961L307.211 89.2327V106.594C310.452 113.075 317.35 127.705 319.017 134.372C321.1 142.705 314.156 146.872 314.85 143.399C315.545 139.927 310.5 139.233 308.417 139.233C306.333 139.233 304.25 139.233 300.961 141.316C297.393 143.577 293.538 145.527 286.194 139.233C281.333 135.066 284.806 136.455 279.944 134.372C274.2 131.91 273.184 138.538 268.323 136.455C263.461 134.372 264.85 128.816 264.85 126.038Z" fill="url(#paint5_radial)" stroke="black" stroke-opacity="0.12"/>
<path d="M286.866 90.5303C284.759 89.0502 278.657 105.891 280.528 113.622C282.399 121.353 288.972 92.0105 286.866 90.5303Z" fill="#393939"/>
<path d="M261.785 68.9796C254.413 56.0239 244.683 60.3375 240.739 64.1137L226.298 86.5154C253.602 71.3865 268.075 87.2401 271.898 97.058C271.599 93.0968 269.156 81.9353 261.785 68.9796Z" fill="#F3D8FE"/>
<path d="M353.303 83.6464C345.932 70.6907 336.201 75.0043 332.257 78.7806L317.817 101.182C345.12 86.0534 359.593 101.907 363.417 111.725C363.117 107.764 360.675 96.6021 353.303 83.6464Z" fill="#F3D8FE"/>
<path d="M230.354 165.038L256.743 135.871L258.417 133.677C275.083 116.316 240.771 104.621 235.215 106.01C229.66 107.399 224.799 101.844 208.827 121.982C196.049 138.094 217.854 157.399 230.354 165.038Z" fill="url(#paint6_radial)"/>
<path d="M335.771 175.593L323.093 144.61L322.355 142.323C314.144 123.745 340.123 117.685 343.701 119.769C347.279 121.854 351.705 117.354 358.903 138.428C364.662 155.287 345.881 170.229 335.771 175.593Z" fill="url(#paint7_radial)"/>
<path d="M326.853 163.782C325.003 151.5 315.361 157.5 318.202 145.509L324.5 141.5L329.25 139.5C329.25 139.5 329.5 135.497 335 136.497C340.5 137.497 340.049 136.181 343.139 138.5C347.694 141.918 352.5 141.5 352.5 141.5L360.5 144L355 167.5L343.139 197.566L329.25 217.705L311.792 231.662L311.792 217.705L309.111 209.372L302.167 203.474L284.111 203.474L289.667 194.788C298.746 195.493 314.315 193.221 315.361 192.01C316.408 190.8 329.25 179.51 333.526 171.348C331.15 170.276 327.374 167.243 326.853 163.782Z" fill="#CDAADC" fill-opacity="0.38"/>
<path d="M293.685 96.07C291.304 101.118 287.236 105.652 285.5 107.288L289.22 91.162C301.125 85.5528 305.589 93.4991 306.333 98.1734V107.288L301.869 96.07C300.133 93.9665 296.065 91.0217 293.685 96.07Z" fill="#CDAADC"/>
<path d="M314.118 41.1133C316.038 43.9031 316.635 41.3974 318.531 49.2376C319.237 52.156 319.802 53.7477 320.088 54.438C320.376 54.9526 320.343 55.0528 320.088 54.438C319.855 54.0195 319.409 53.3271 318.7 52.5222L321.017 56.9361L318.829 77.5747L308.356 76.4647C302.071 75.7987 292.732 77.3134 279.118 65.8529C268.228 56.6844 256.894 51.2536 252.588 49.6842C249.33 47.1127 239.881 42.9947 228.149 47.0942C216.417 51.1937 205.044 65.2377 200.823 71.7473L192.444 70.8593C205.484 49.9794 239.541 8.89802 271.451 11.6119C303.361 14.3258 312.808 23.4319 313.417 28.7837C313.62 30.5666 315.276 34.0028 314.118 41.1133Z" fill="#F3D8FE"/>
<path d="M304.393 94.4072C299.344 88.8145 292.472 89.5348 289.667 90.594V84.2386C291.303 83.8149 297.812 83.2218 302.861 84.2386C309.173 85.5097 310.705 101.398 304.393 94.4072Z" fill="#F3D8FE"/>
<path fill-rule="evenodd" clip-rule="evenodd" d="M252.861 131.433C273.188 131.433 289.667 114.644 289.667 93.9333C289.667 91.6924 289.455 89.6357 289.054 87.745C295.309 86.5685 301.777 87.4398 307.495 90.2247C306.269 92.7804 305.584 95.9228 305.584 99.7818C305.584 121.711 313.003 138.759 331.831 142.906C350.659 147.053 361.889 140.461 368.833 120.322C368.833 91.8173 366.551 80.1956 345.777 79.5899C345.335 79.577 344.891 79.5637 344.445 79.5504C332.801 79.2021 319.79 78.8129 312.165 84.5454C304.314 80.2591 295.17 78.9786 286.445 80.943C280.432 70.784 266.839 67.3553 252.861 64.7667C244.322 63.1853 235.564 62.0937 228.582 63.4756L210.599 64.7667L203.903 67.5444L192.742 71.7111L188.278 89.7667L210.599 77.9611L214.556 81.6538C214.52 85.1264 214.991 89.1909 216.055 93.9333C216.055 114.644 232.534 131.433 252.861 131.433ZM308.614 100.9C308.614 121.163 315.469 136.915 332.867 140.747C350.264 144.579 360.64 138.488 367.057 119.88C367.057 93.5407 364.948 82.8021 345.753 82.2424C345.345 82.2305 344.935 82.2183 344.523 82.206L344.522 82.2059C328.049 81.7132 308.614 81.1318 308.614 100.9ZM252.861 127.961C271.654 127.961 286.194 114.406 286.194 95.1144C286.194 75.8231 270.196 71.1809 252.861 67.9466C232.958 64.2332 211.77 63.4186 218.833 95.1144C218.833 114.406 234.068 127.961 252.861 127.961Z" fill="#393939"/>
<path d="M364.667 98.5575L359.456 100.864C358.865 101.126 358.346 101.528 357.944 102.035L339.969 98.2466C337.308 97.6857 334.567 97.6141 331.881 98.0353C329.694 98.3781 327.626 99.2557 325.86 100.59L318.833 105.899C328 96.239 336.556 96.239 336.556 96.239C336.556 96.239 342.056 95.8526 346.944 97.0118L364.667 98.5575Z" fill="black" stroke="black"/>
<path d="M329.465 110.627C326.341 108.867 325.602 106.001 325.81 103.409C326.039 100.553 328.881 98.9549 331.746 98.9549H334.578C336.15 98.9549 337.551 99.949 338.07 101.433C338.208 101.826 338.282 102.239 338.265 102.655C338.031 108.53 334.524 113.474 329.465 110.627Z" fill="url(#paint8_radial)" stroke="black"/>
<path d="M11 278H52.6667V444.667H11V278Z" fill="#C4C4C4"/>
<path d="M46.6111 352.978L103.556 336.455L217.444 452.871L46.6111 511.455V352.978Z" fill="#ADABAB"/>
<path d="M498 365.818L440.593 350.344L325.778 459.369L498 514.233V365.818Z" fill="#ADABAB"/>
<path d="M451 302L493.361 311.028L498.222 442.278H451V302Z" fill="#C4C4C4"/>
<path d="M40.2477 433.963L84.4405 420L97.2175 484.542L43.777 495.121L40.2477 433.963Z" fill="#B8B8B8"/>
<path d="M415.213 438.546L460.315 449.214L438.196 511.178L386.889 492.864L415.213 438.546Z" fill="#B8B8B8"/>
<path d="M270.222 511.359L432.037 340.448L366.092 319.494L270.222 511.359Z" fill="url(#paint9_linear)"/>
<path d="M362.708 11.4569L360.875 8.0353C357.439 1.62122 352.45 -3.82893 346.363 -7.81664C339.276 -12.4603 330.986 -14.934 322.513 -14.934H316.056H278.948C276.099 -14.934 274.151 -12.0564 275.209 -9.41113C275.575 -8.49537 276.265 -7.74587 277.147 -7.30478L283.583 -4.08693C284.858 -3.4493 286.071 -2.69423 287.206 -1.83152L302.861 10.066L311.328 14.9681C314.425 16.7609 317.94 17.7049 321.518 17.7049H323.241C327.112 17.7049 330.848 19.1255 333.741 21.6971C334.907 22.7336 335.913 23.9371 336.727 25.2684L340.087 30.7658C342.116 34.0875 343.813 37.6016 345.152 41.257L358.102 76.6222C360.157 82.2333 361.569 88.0594 362.31 93.9888L364.205 109.15C365.428 118.934 364.809 128.859 362.379 138.415L355.639 164.927L343.836 194.434C341.528 200.205 338.546 205.685 334.953 210.757L332.048 214.858C329.723 218.14 327.645 221.803 324.153 223.799C319.733 226.326 313.972 228.019 313.972 232.288C313.972 233.378 313.796 234.58 313.505 235.836C311.118 246.165 306.283 256.068 302.143 265.827L298.694 273.955L293.695 290.202C293.326 291.401 293.139 292.648 293.139 293.903C293.139 297.553 291.554 301.023 288.796 303.413L285.764 306.041C283.754 307.783 282.087 309.885 280.848 312.238L278.096 317.467C276.555 320.394 275.348 323.485 274.495 326.681L274.201 327.784C273.404 330.774 273 333.855 273 336.949C273 341.215 272.233 345.445 270.735 349.439L268.833 354.51L265.923 365.668C265.089 368.865 264.667 372.155 264.667 375.458V386.966C264.667 389.316 265.552 391.581 267.146 393.308C270.452 396.889 270.365 402.384 267.86 406.565C266.092 409.518 264.667 412.807 264.667 415.622V422.566V423.514C264.667 431.657 274.558 436.111 281.333 431.594C288 427.149 295.685 408.446 298.694 399.649L297.256 404.375C294.987 411.832 294.187 419.739 291.794 427.157C290.726 430.469 289.154 433.978 286.889 437.149C279.944 446.872 278.556 444.788 273 454.51C272.251 455.822 271.807 456.915 271.604 457.821C270.202 464.094 280.871 458.929 285.214 454.191L290.355 448.583C292.592 446.142 293.833 442.951 293.833 439.64C293.833 437.994 294.14 436.362 294.739 434.829L304.944 408.677L311.194 390.622C313.741 383.909 322.444 366.038 336.889 348.26C347.306 332.288 336.889 363.538 336.889 370.483C336.889 377.427 325.778 399.649 326.472 415.622C326.739 421.747 328.399 426.521 330.412 430.036C332.565 433.795 336.889 431.759 336.889 427.427V408.677V393.105C336.889 391.461 337.162 389.828 337.697 388.274L348.304 357.463C349.354 354.412 353.692 354.477 354.778 357.516C354.887 357.822 354.944 358.149 354.944 358.474C354.944 361.465 353.908 378.104 353.265 381.026C352.343 385.219 351.472 389.302 351.472 390.622C351.472 394.788 352.167 394.094 352.167 400.344C352.167 401.748 352.2 402.882 352.249 403.817C352.518 408.945 350.205 413.829 350.886 418.918C351.107 420.566 351.472 422.324 351.472 424.649C351.472 425.15 351.465 425.722 351.448 426.344C351.201 435.479 345.772 444.507 348.48 453.234C350.176 458.698 354.013 461.697 359.111 452.427C359.786 451.199 360.375 450.129 360.886 449.189C366.654 438.589 366.659 426.287 372.306 415.622C377.306 406.177 374.389 417.01 376.472 408.677C378.39 401.006 376.732 392.526 378.054 384.731C379.88 373.958 382.88 359.645 384.806 354.51C388.972 343.399 388.972 333.677 398 328.816C407.028 323.955 401.918 343.751 396.611 380.899C395.464 388.927 395.264 386.539 391.711 398.754C389.805 405.306 389.608 412.605 385.881 418.321C383.51 421.96 380.639 424.574 380.639 427.427C380.639 428.837 382.16 428.403 384.375 427.012C394.288 420.789 400.157 409.946 404.314 399.005L411.194 380.899C412.583 375.344 415.361 362.983 415.361 357.983C415.361 353.399 413.027 344.575 411.568 339.749C411.325 338.943 411.194 338.11 411.194 337.268C411.194 330.687 418.605 326.905 424.931 328.718C427.279 329.391 429.339 329.559 430.639 328.816C432.659 327.662 433.018 325.333 432.669 322.94C432.109 319.103 428.221 317.01 424.343 317.01H423.577C421.42 317.01 419.342 316.198 417.757 314.735L416.135 313.238C413.439 310.749 413.354 306.517 415.949 303.923C418.354 301.518 422.211 301.39 424.771 303.629L425.778 304.51L442.041 321.451C442.309 321.731 442.551 322.035 442.763 322.359C446.165 327.562 454.25 325.153 454.25 318.938V313.864C454.25 311.467 453.144 309.206 451.252 307.735L443.559 301.751C438.358 297.705 431.859 294.988 426.195 291.621C423.729 290.155 421.238 288.779 418.833 288.538C417.633 288.418 416.475 288.231 415.368 287.995C409.093 286.658 405.639 280.371 405.639 273.955L405.639 262.236C405.639 254.898 407.554 247.687 411.194 241.316L419.528 226.733L423.458 220.082C426.733 214.539 427.778 207.958 426.382 201.673C425.98 199.866 425.778 198.021 425.778 196.17V184.755C425.778 180.359 425.104 175.988 423.78 171.796C422.344 167.248 420.162 162.971 417.324 159.139L414.018 154.677C409.841 149.037 406.463 142.848 403.979 136.284L398 120.483L396.406 117.095C393.774 111.502 391.808 105.62 390.547 99.5693L390.387 98.7994C389.445 94.2821 388.11 89.856 386.397 85.5717L384.806 81.5938L380.639 64.9271L372.306 42.0105L367.821 24.5698C366.648 20.0097 364.932 15.6072 362.708 11.4569Z" fill="#0C0820"/>
<path d="M169.073 9.46244L168.116 11.0053C165.367 15.4338 163.221 20.2085 161.733 25.2036L156.74 41.9628L147.094 64.8603L143.66 76.7188C142.736 79.9103 141.57 83.0269 140.173 86.0416C138.361 89.9516 136.939 94.0308 135.928 98.22L135.727 99.0555C134.202 105.374 131.854 111.464 128.743 117.17L126.999 120.369L120.22 135.834C117.253 142.602 113.299 148.893 108.487 154.5L104.291 159.39C101.234 162.952 98.8427 167.034 97.2302 171.442C95.6528 175.754 94.8457 180.309 94.8457 184.9V198.776V211.265L94.3414 218.093C93.5544 228.746 95.6662 239.414 100.453 248.965L100.562 249.182C102.107 252.265 103.366 255.483 104.325 258.795L106.825 267.435C106.877 267.614 106.957 267.783 107.063 267.936L107.645 268.773C108.57 270.106 107.013 271.753 105.63 270.904C105.202 270.641 104.674 270.621 104.19 270.757C100.386 271.825 92.8919 269.965 86.8889 270.483C73.9422 271.6 62.6593 280.329 60.9419 293.21L55.9843 330.392C55.7657 332.031 56.2963 333.682 57.429 334.887C59.7613 337.367 63.7643 337.154 65.8201 334.44L74.535 322.935C75.2127 322.04 75.9741 321.212 76.8087 320.461L94.8457 304.243L96.8567 302.724C99.435 300.777 103.023 300.894 105.469 303.005C108.72 305.811 108.62 310.881 105.261 313.557L103.626 314.86C102.105 316.072 100.217 316.732 98.2722 316.732H96.6149C92.0145 316.732 87.0603 319.046 86.7522 323.636C86.616 325.665 87.202 327.533 89.2189 328.528C91.1119 329.462 94.3979 328.956 97.989 327.815C104.393 325.781 111.726 329.976 111.726 336.695C111.726 337.718 111.544 338.731 111.208 339.698C109.515 344.57 106.903 353.168 106.903 357.67C106.903 362.666 110.118 375.017 111.726 380.568L118.429 395.795C124.065 408.596 131.502 421.986 144.384 427.432C146.044 428.134 147.094 428.145 147.094 427.057C147.094 424.853 145.109 422.792 142.94 420.291C137.08 413.535 136.551 403.784 132.797 395.667C128.818 387.062 126.999 388.918 126.999 380.568C126.999 343.099 116.549 323.671 126.999 328.528C137.448 333.385 156.74 351.426 147.094 357.67C142.033 360.947 145.687 374.255 148.8 384.592C151.083 392.171 152.94 400.407 152.94 408.322C152.94 409.184 152.909 409.836 152.858 410.322C151.388 409.567 152.529 413.498 152.858 410.322C153.52 410.662 154.71 411.95 156.74 415.261C163.274 425.915 163.545 438.659 170.225 449.222C170.752 450.057 171.346 450.989 172.013 452.036C177.389 460.472 180.972 458.738 182.564 454.236C185.964 444.617 180.855 434.483 180.855 424.281C180.855 422.615 180.783 421.241 180.594 419.989C179.633 413.597 176.187 407.856 177.376 401.501C177.53 400.677 177.64 399.93 177.64 399.302C177.64 393.057 176.688 394.445 176.688 390.282C176.688 388.945 176.324 384.768 176.043 380.516C175.828 377.266 176.836 361.561 176.836 358.303C176.836 357.885 176.918 357.472 177.078 357.085L177.136 356.945C178.492 353.667 183.145 353.697 184.459 356.992L196.514 387.219C197.321 389.242 197.735 391.401 197.735 393.58V408.322V427.057C197.735 431.532 202.244 433.919 204.823 430.262C207.335 426.7 209.467 421.736 209.793 415.261C210.597 399.302 197.735 377.099 197.735 370.16C197.735 363.221 185.678 331.997 197.735 347.956C214.455 365.719 224.53 383.575 227.477 390.282L234.711 408.322L244.428 429.816C246.501 434.4 247.573 439.373 247.573 444.403C247.573 450.071 251.402 455.652 257.031 456.316C260.308 456.702 262.43 456.001 259.806 452.036C253.375 442.322 263.649 446.485 255.611 436.771C253.847 434.639 252.445 432.354 251.341 430.078C246.889 420.909 245.841 410.349 242.451 400.736L241.946 399.302C245.429 408.091 254.325 426.779 262.042 431.22C262.38 431.415 262.72 431.613 263.06 431.814C270.794 436.382 281.333 431.182 281.333 422.2V415.261C281.333 412.517 279.762 409.321 277.784 406.427C274.916 402.23 274.836 396.358 278.549 392.886C280.325 391.225 281.333 388.902 281.333 386.47V375.272C281.333 371.882 280.835 368.511 279.854 365.266L276.51 354.201L273.996 348.414C272.473 344.908 271.687 341.127 271.687 337.305C271.687 333.798 272.349 330.323 273.637 327.061L276.51 319.788L308.661 256.071C309.885 253.646 310.907 251.124 311.717 248.531L313.664 242.301C313.868 241.648 313.972 240.968 313.972 240.284C313.972 235.667 309.449 232.407 305.069 233.867L304.295 234.125C303.803 234.289 303.296 234.4 302.781 234.458L296.33 235.174C288.701 236.022 280.984 235.584 273.5 233.878L261.937 231.242C260.937 231.014 259.961 230.691 259.023 230.279C253.168 227.702 246.351 223.761 240.264 221.793C238.683 221.282 237.049 220.649 235.5 219.788C234.935 219.474 234.387 219.155 233.854 218.831C224.784 213.328 217.083 205.524 210.572 197.148C207.915 193.73 205.58 190.074 203.598 186.225L200.059 179.351C199.582 178.425 199.174 177.465 198.836 176.48L193.673 161.403C191.959 156.399 186.097 154.212 181.526 156.871C178.277 158.76 174.168 158.257 171.472 155.641L167.95 152.224C167.614 151.897 167.248 151.602 166.858 151.342C165.873 150.685 165.053 149.811 164.46 148.787L161.008 142.819C159.1 139.522 157.709 135.951 156.883 132.232L155.315 125.167C154.607 121.978 154.25 118.721 154.25 115.455V101.747C154.25 98.1914 155.712 94.7918 158.294 92.3462L160.485 90.2702C164.359 86.6005 170.45 86.6828 174.223 90.4558C179.402 95.635 188.222 93.55 190.533 86.5998L199.703 59.0289C200.242 57.409 200.929 55.8421 201.755 54.3482L206.858 45.1219C209.282 40.7405 212.067 36.5689 215.184 32.6506L220.466 26.0109L222.938 23.5378C226.834 19.6392 231.08 16.1068 235.623 12.9851L239.901 10.0451L258.607 -1.7494L267.45 -7.348C268.117 -7.7706 268.649 -8.3765 268.981 -9.09326C270.244 -11.8184 268.254 -14.934 265.25 -14.934H221.85H212.927C204.023 -14.934 195.27 -12.6304 187.519 -8.24706C179.982 -3.98463 173.639 2.10545 169.073 9.46244Z" fill="#0C0820"/>
<path d="M190.361 83.6771L170.917 87.1494L186.194 103.816L190.361 83.6771Z" fill="#0C0820"/>
<path d="M321.01 226.733L303.023 234.894L321.94 247.277L321.01 226.733Z" fill="#0C0820"/>
<path d="M191.472 157.666L188.579 150.593L185.653 157.544L191.472 157.666Z" fill="#0C0820"/>
<path d="M177.902 24.9661L197.604 -14.035L274.083 -14.2196L273.421 -2.34277L247.068 10.8775L219.477 26.4195L188.802 54.6375L172.394 81.3671L162.845 86.1468L167.82 58.9115L177.902 24.9661Z" fill="#21203E"/>
<path d="M184.111 -14.934H207.028C199.389 -8.68396 184.111 5.20493 184.111 10.7605C184.111 16.316 169.759 37.1494 162.583 46.8716C156.796 64.6957 145.222 101.177 145.222 104.51C145.222 108.677 127.167 132.288 127.167 139.233C127.167 146.177 120.917 159.372 120.917 162.844C120.917 165.622 107.491 185.76 100.778 195.483L104.25 171.177L115.361 132.288L127.167 104.51L134.806 87.8438L145.222 60.7605V46.8716L152.861 35.066L162.583 10.7605L184.111 -14.934Z" fill="#2F294E"/>
<path d="M174.363 96.8707L183.053 109.371L185.726 106.594C182.849 99.8634 173.847 84.1133 163.528 88.2981C153.208 92.483 153.522 112.207 154.969 121.545C156.956 134.372 165.18 153.825 174.363 157.983C183.547 162.141 190.387 154.733 191.577 150.821L187.975 138.444C188.215 139.313 186.257 140.923 176.505 140.415C166.753 139.907 160.472 125.883 158.55 118.934C157.346 112.419 156.228 98.4743 161.385 94.8179C166.543 91.1614 172.21 95.1358 174.363 96.8707Z" fill="#F3D8FE"/>
<path d="M224.225 12.8438L228.298 15.583L221.511 26.5398L209.972 38.1814L190.289 71.0518L181.465 88.8565L170.606 103.922L161.782 126.521V155.967L179.429 172.402L190.289 184.044L197.755 197.055L209.972 208.696L233.728 234.719L254.768 255.948L258.841 270.328L277.167 284.024L269.022 290.188L243.23 264.165L254.768 276.492L269.022 303.199L263.592 308.677V303.199L254.768 290.188L248.66 279.916L236.443 266.904L228.298 248.415L216.759 234.719L203.863 220.338L187.574 202.533C182.823 197.055 173.728 185.687 175.357 184.044C176.986 182.4 166.986 175.598 161.782 172.402L156.352 164.184L149.565 144.325L146.171 126.521L143.456 118.303L135.311 108.716L127.167 98.4437V90.2261L135.311 78.5845L149.565 71.0518L161.782 66.943L170.606 62.8342L187.574 49.823L193.004 40.9206L197.755 32.703L206.578 19.007L224.225 12.8438Z" fill="#31224D" fill-opacity="0.8"/>
<path d="M270.012 510.089L98.4842 338.561L174.179 317.033L270.012 510.089Z" fill="url(#paint10_linear)"/>
<path d="M172.975 254.717L160.576 250.526C150.026 246.96 141.065 258.959 147.478 268.062C148.282 269.203 148.872 270.481 149.219 271.833L160.39 315.4C161.846 321.081 162.583 326.922 162.583 332.786V342.643C162.583 346.842 162.225 351.033 161.171 355.098C159.297 362.331 155.688 374.184 149.785 389.256C149.072 391.075 148.799 393.041 148.429 394.959C147.535 399.596 144.482 402.058 140.793 403.208C134.84 405.064 128.959 410.455 130.44 416.512C132.131 423.429 141.201 425.098 145.244 419.237L147.881 415.413C148.421 414.63 149.066 413.925 149.799 413.319L177.249 390.601C184.73 384.411 197.5 393.683 195.222 403.122C193.841 408.844 197.512 412.006 202.185 408.427L207.914 404.039C208.701 403.436 209.336 402.656 209.766 401.763L220.915 378.64C225.487 369.157 227.861 358.766 227.861 348.239V341.341C227.861 329.924 225.068 318.68 219.726 308.589L214.036 297.841C210.771 291.674 206.602 286.03 201.668 281.095L179.082 258.509C177.365 256.793 175.276 255.495 172.975 254.717Z" fill="#2F294E"/>
<path d="M313.444 77.2777L313.51 76.0613C315.756 72.479 336.26 71.3613 343.792 69.8819C358.646 72.0781 378.522 80.769 358.797 69.3044C344.28 60.8673 326.986 62.248 321.698 63.1204L313.782 71.0369L313.51 76.0613C313.273 76.4384 313.239 76.8427 313.444 77.2777Z" fill="#525252" fill-opacity="0.83"/>
<path d="M273.694 -11.4617V-2.43396H300.083L320.917 10.7605L333.417 24.6494L339.667 36.4549V60.066V84.3716V103.122L350.778 127.427L370.222 158.677L363.972 194.788C358.417 204.51 347.028 225.622 345.917 232.288C344.806 238.955 318.139 258.214 301.472 265.622L282.028 303.816L268.833 339.233L259.111 396.177L263.278 439.233L275.778 446.177V415.622L289.667 358.677L304.944 321.872L333.417 292.705L367.444 262.844L388.278 246.872L400.778 232.288L407.722 211.455L411.194 194.788L407.722 180.205L400.778 163.538L393.833 155.205L383.417 139.927L378.555 129.51L370.917 117.01L367.444 98.2605L373.694 109.372L383.417 127.427L393.833 142.01L400.778 151.038L424.389 174.649L400.778 144.094L388.278 121.177L383.417 109.372L378.555 103.122L373.694 84.3716V67.0105L370.917 53.816L367.444 40.6216L359.111 24.6494L350.778 10.7605L339.667 -2.43396L333.417 -11.4617L304.944 -14.934H268.833L273.694 -11.4617Z" fill="#21203E"/>
<path d="M221.611 87.9549L227.283 91.9256C228.118 92.51 228.794 93.2934 229.25 94.2049L249.346 87.5061C252.549 86.4385 255.99 86.303 259.267 87.1154C261.467 87.6609 263.437 88.8919 264.892 90.6304L273.694 101.149C263.278 83.7883 253.556 83.7883 253.556 83.7883C253.556 83.7883 247.306 83.0938 241.75 85.1772L221.611 87.9549Z" fill="black" stroke="black"/>
<path d="M248.83 99.0661C245.243 97.1094 244.352 93.9404 244.555 91.0478C244.789 87.714 248.136 85.8716 251.479 85.8716H254.903C256.676 85.8716 258.259 86.9833 258.861 88.6513C259.027 89.1095 259.116 89.5936 259.095 90.0802C258.812 96.7105 254.724 102.281 248.83 99.0661Z" fill="url(#paint11_radial)" stroke="black"/>
<path d="M270.337 165.771C260.324 168.847 252.108 167.309 248 164.233V172.693C249.027 173.718 254.932 178.077 270.337 187.306C289.594 198.843 311.161 191.152 316.553 187.306C321.945 183.461 333.498 174.231 328.877 175.769C325.609 176.857 321.945 174.231 321.945 174.231L320.404 172.693C317.323 169.873 310.554 164.891 303.458 165.771C299.578 166.252 294.729 167.822 294.215 169.617C289.594 164.745 280.351 162.694 270.337 165.771Z" fill="#DFB2D9" stroke="#ECD6F5"/>
<path d="M249.389 169.788C250.315 171.409 255.639 176.177 258.417 176.733C261.889 177.427 265.361 175.344 269.528 175.344C272.861 175.344 278.556 175.344 282.028 176.733C284.111 177.566 292.306 180.066 294.528 179.51C298.694 178.469 302.861 178.122 305.639 178.816C309.567 179.798 316.586 181.594 318.139 181.594C320.222 181.594 325.778 179.51 325.778 177.427" stroke="#B69EC1"/>
<path d="M243.833 162.149L250.083 164.927L248.694 174.649C248.694 174.649 246.611 172.566 245.222 169.788C243.833 167.01 243.833 162.149 243.833 162.149Z" fill="#BBA1C5" fill-opacity="0.74"/>
<path d="M171.938 101.884C174.291 100.776 177.33 106.036 178.556 108.804C178.556 120.109 177.967 143.409 175.614 146.177C166.056 142.717 166.791 137.872 166.056 131.643V115.725C166.056 111.573 169.585 102.991 171.938 101.884Z" fill="#F3D8FE"/>
<path d="M178.59 119.356L179.459 112.401C178.868 111.621 175.684 110.868 174.389 112.401C172.77 114.318 170.862 120.509 169.487 125.988C168.387 130.371 171.385 134.701 173.021 136.318L175.778 137.592C176.37 138.372 179.193 138.786 183.203 137.592C187.214 136.398 185.28 133.849 183.812 132.724L179.669 127.261C179.194 125.553 178.311 121.582 178.59 119.356Z" fill="#CDAADC"/>
<path d="M177.752 125.538C176.196 121.685 180.562 115.514 182.939 112.91L186.233 135.754C184.054 133.954 179.309 129.39 177.752 125.538Z" fill="#F3D8FE"/>
<circle cx="181.333" cy="150.344" r="2.77778" fill="#292929"/>
<path d="M257.336 194.546C255.67 183.991 247.846 185.982 244.142 188.296C230.947 195.935 244.142 209.824 244.142 217.463C244.142 225.102 260.364 230.493 266.056 228.816C272.306 226.975 275.623 230.195 282.336 230.657C285.809 234.824 286.582 236.236 298.309 235.066C309.806 233.919 308.648 226.038 307.028 220.483C305.639 216.085 302.753 209.824 298.309 209.824H283.725C275.623 209.13 259.003 205.102 257.336 194.546Z" fill="#F3D8FE"/>
<path d="M303.545 102.38C303.545 89.0707 291.15 100.32 288.671 107.014C288.671 109.073 287.742 114.428 284.024 119.371C279.376 125.55 288.671 128.639 288.671 129.411C288.671 130.029 293.629 127.609 296.108 126.322C302.057 125.704 305.404 124.005 306.333 123.233L303.545 113.192V109.73C303.87 114.364 303.545 105.096 303.545 102.38Z" fill="#F3D8FE"/>
<path d="M260.042 144.606L251.685 161.9C249.209 167.024 269.29 163.67 279.639 161.353L287.079 150.977C284.282 143.469 267.889 143.601 260.042 144.606Z" fill="#F3D8FE" fill-opacity="0.48"/>
<path d="M281.648 71.4861L281.807 70.2784C279.819 66.2855 255.475 60.8299 246.742 57.7772C228.518 56.7748 203.006 61.0787 228.881 54.0209C247.923 48.8269 268.369 53.858 274.533 55.8383L282.465 65.2897L281.807 70.2784C282.017 70.6987 281.978 71.1027 281.648 71.4861Z" fill="#525252" fill-opacity="0.83"/>
<path d="M366.056 345.487C366.056 383.454 360.459 414.233 353.556 414.233C346.652 414.233 341.056 383.454 341.056 345.487C341.056 307.52 346.652 308.681 353.556 308.681C360.459 308.681 366.056 307.52 366.056 345.487Z" fill="#21203E"/>
<path d="M150.778 328.821C150.778 366.788 145.181 397.566 138.278 397.566C131.374 397.566 125.778 366.788 125.778 328.821C125.778 290.853 131.374 292.014 138.278 292.014C145.181 292.014 150.778 290.853 150.778 328.821Z" fill="#0C0820"/>
<path d="M414.667 355.209C414.667 393.176 409.07 423.955 402.167 423.955C395.263 423.955 389.667 393.176 389.667 355.209C389.667 317.242 395.263 318.403 402.167 318.403C409.07 318.403 414.667 317.242 414.667 355.209Z" fill="#0C0820"/>
<path d="M288.04 159.84L291.701 152.729C293.27 150.596 294.002 153.298 299.023 149.885C304.044 146.471 309.832 148.462 312.098 149.885C312.969 151.07 313.981 154.009 311.052 156.285C307.391 159.129 302.161 159.129 299.023 159.129C296.513 159.129 296.408 163.396 295.362 165.529C292.224 167.663 287.517 161.974 288.04 159.84Z" fill="#CDAADC" fill-opacity="0.23"/>
</g>
<defs>
<filter id="filter0_d" x="367" y="31" width="108" height="108" filterUnits="userSpaceOnUse" color-interpolation-filters="sRGB">
<feFlood flood-opacity="0" result="BackgroundImageFix"/>
<feColorMatrix in="SourceAlpha" type="matrix" values="0 0 0 0 0 0 0 0 0 0 0 0 0 0 0 0 0 0 127 0"/>
<feOffset dx="2" dy="4"/>
<feGaussianBlur stdDeviation="2"/>
<feColorMatrix type="matrix" values="0 0 0 0 0 0 0 0 0 0 0 0 0 0 0 0 0 0 0.69 0"/>
<feBlend mode="normal" in2="BackgroundImageFix" result="effect1_dropShadow"/>
<feBlend mode="normal" in="SourceGraphic" in2="effect1_dropShadow" result="shape"/>
</filter>
<filter id="filter1_d" x="457" y="91" width="58" height="58" filterUnits="userSpaceOnUse" color-interpolation-filters="sRGB">
<feFlood flood-opacity="0" result="BackgroundImageFix"/>
<feColorMatrix in="SourceAlpha" type="matrix" values="0 0 0 0 0 0 0 0 0 0 0 0 0 0 0 0 0 0 127 0"/>
<feOffset dx="2" dy="4"/>
<feGaussianBlur stdDeviation="2"/>
<feColorMatrix type="matrix" values="0 0 0 0 0 0 0 0 0 0 0 0 0 0 0 0 0 0 0.69 0"/>
<feBlend mode="normal" in2="BackgroundImageFix" result="effect1_dropShadow"/>
<feBlend mode="normal" in="SourceGraphic" in2="effect1_dropShadow" result="shape"/>
</filter>
<linearGradient id="paint0_linear" x1="256" y1="0" x2="256" y2="512" gradientUnits="userSpaceOnUse">
<stop stop-color="#B08FFA"/>
<stop offset="1" stop-color="white"/>
</linearGradient>
<radialGradient id="paint1_radial" cx="0" cy="0" r="1" gradientUnits="userSpaceOnUse" gradientTransform="translate(419 81) rotate(90) scale(99.5)">
<stop stop-color="#D55B89"/>
<stop offset="1" stop-color="#884791"/>
</radialGradient>
<radialGradient id="paint2_radial" cx="0" cy="0" r="1" gradientUnits="userSpaceOnUse" gradientTransform="translate(484 116) rotate(90) scale(49.75)">
<stop stop-color="#38276D"/>
<stop offset="1" stop-color="#884791"/>
</radialGradient>
<linearGradient id="paint3_linear" x1="279.25" y1="135.76" x2="278.442" y2="138.505" gradientUnits="userSpaceOnUse">
<stop stop-color="#9575A4"/>
<stop offset="1" stop-color="#CBB3D6"/>
</linearGradient>
<linearGradient id="paint4_linear" x1="308.417" y1="139.927" x2="307.609" y2="142.672" gradientUnits="userSpaceOnUse">
<stop stop-color="#9575A4"/>
<stop offset="1" stop-color="#CBB3D6"/>
</linearGradient>
<radialGradient id="paint5_radial" cx="0" cy="0" r="1" gradientUnits="userSpaceOnUse" gradientTransform="translate(292.444 121.177) rotate(35.5377) scale(11.9477 10.7307)">
<stop stop-color="#EBDEF1"/>
<stop offset="1" stop-color="#E7CBF3"/>
</radialGradient>
<radialGradient id="paint6_radial" cx="0" cy="0" r="1" gradientUnits="userSpaceOnUse" gradientTransform="translate(223 128.122) rotate(78.5034) scale(41.8111 41.0046)">
<stop stop-color="#F3D8FE"/>
<stop offset="1" stop-color="#E7CBF3"/>
</radialGradient>
<radialGradient id="paint7_radial" cx="0" cy="0" r="1" gradientUnits="userSpaceOnUse" gradientTransform="translate(347.922 142.153) rotate(110.144) scale(39.5053 29.2233)">
<stop stop-color="#F3D8FE"/>
<stop offset="1" stop-color="#E7CBF3"/>
</radialGradient>
<radialGradient id="paint8_radial" cx="0" cy="0" r="1" gradientUnits="userSpaceOnUse" gradientTransform="translate(332.325 104.484) rotate(90) scale(4.30005)">
<stop stop-color="#8E8D8D"/>
<stop offset="1"/>
</radialGradient>
<linearGradient id="paint9_linear" x1="322.295" y1="526.312" x2="380.499" y2="323.631" gradientUnits="userSpaceOnUse">
<stop stop-color="#ABADD1"/>
<stop offset="1" stop-color="#C4C4C4"/>
</linearGradient>
<linearGradient id="paint10_linear" x1="225.778" y1="444.094" x2="157.722" y2="314.233" gradientUnits="userSpaceOnUse">
<stop stop-color="#ABADD1"/>
<stop offset="1" stop-color="#ABACB0"/>
</linearGradient>
<radialGradient id="paint11_radial" cx="0" cy="0" r="1" gradientUnits="userSpaceOnUse" gradientTransform="translate(252.167 92.1216) rotate(90) scale(4.86111 5.01673)">
<stop stop-color="#8E8D8D"/>
<stop offset="1"/>
</radialGradient>
<clipPath id="clip0">
<rect width="512" height="512" fill="white"/>
</clipPath>
</defs>
</svg>
